<svg width="16" height="16" viewBox="0 0 16 16" fill="none" xmlns="http://www.w3.org/2000/svg">
<rect width="16" height="16" rx="8" fill="#167EDD"/>
<path d="M8.72036 6.9245C8.87272 6.90824 9.08266 6.9218 9.24142 6.92186L9.83184 6.92115C9.91826 6.92106 10.1258 6.90687 10.2014 6.93118C10.2436 6.94473 10.2792 6.98035 10.2992 7.01904C10.3232 7.06542 10.3282 7.12101 10.3099 7.1702C10.2877 7.23 10.2389 7.2617 10.1831 7.28632C10.0541 7.30715 9.80875 7.29225 9.66488 7.29236C9.37581 7.29256 9.08482 7.30247 8.79597 7.29493C8.7629 7.29406 8.72776 7.29114 8.69624 7.2808C8.6584 7.26842 8.62176 7.22918 8.60428 7.19443C8.60143 7.18867 8.59888 7.18279 8.59663 7.17679C8.59438 7.17077 8.59245 7.16466 8.59084 7.15845C8.58923 7.15222 8.58795 7.14594 8.587 7.13959C8.58606 7.13325 8.58543 7.12687 8.58514 7.12045C8.58486 7.11403 8.58491 7.10762 8.58529 7.10122C8.58568 7.09482 8.5864 7.08845 8.58745 7.08212C8.5885 7.07578 8.58987 7.06952 8.59157 7.06333C8.59329 7.05714 8.59531 7.05105 8.59765 7.04508C8.62076 6.98554 8.6643 6.95107 8.72036 6.9245Z" fill="white"/>
<path d="M10.2802 7.72961C10.4005 7.71927 10.5313 7.74747 10.6309 7.81738C10.7452 7.89768 10.8207 8.02626 10.8442 8.16306C10.8675 8.2981 10.836 8.44498 10.755 8.55613C10.6636 8.68143 10.5449 8.73697 10.3952 8.76033C10.2618 8.76978 10.1403 8.74991 10.0302 8.66917C9.9204 8.58858 9.84452 8.45505 9.82447 8.32096C9.80406 8.18462 9.84572 8.03999 9.92755 7.92995C10.0183 7.80791 10.1319 7.75168 10.2802 7.72961Z" fill="white"/>
<path d="M10.3223 8.08304C10.3734 8.08237 10.4261 8.09322 10.4628 8.13135C10.5088 8.17913 10.5082 8.23977 10.5073 8.30134C10.47 8.36829 10.4308 8.39865 10.3579 8.42208C10.3159 8.4252 10.2795 8.42594 10.242 8.40391C10.2012 8.37993 10.1733 8.34205 10.1632 8.29575C10.162 8.28996 10.161 8.28412 10.1603 8.27823C10.1597 8.27235 10.1593 8.26644 10.1592 8.26051C10.1591 8.25458 10.1593 8.24866 10.1599 8.24274C10.1604 8.23684 10.1612 8.23098 10.1623 8.22515C10.1634 8.21933 10.1648 8.21357 10.1665 8.20789C10.1681 8.2022 10.1701 8.19661 10.1723 8.19113C10.1746 8.18564 10.1771 8.18028 10.1799 8.17504C10.1827 8.16981 10.1857 8.16473 10.189 8.15981C10.2219 8.11098 10.2665 8.09322 10.3223 8.08304Z" fill="white"/>
<path d="M9.62226 11.3414C9.71294 11.3286 9.82114 11.3474 9.90323 11.3877C10.0201 11.445 10.1141 11.5607 10.1553 11.6833C10.1998 11.8158 10.1875 11.9727 10.1246 12.0973C10.1209 12.1048 10.1169 12.1122 10.1128 12.1195C10.1087 12.1268 10.1044 12.134 10.0999 12.1411C10.0954 12.1482 10.0908 12.1552 10.086 12.162C10.0811 12.1689 10.0761 12.1756 10.071 12.1822C10.0658 12.1888 10.0605 12.1953 10.055 12.2016C10.0495 12.208 10.0439 12.2142 10.0381 12.2203C10.0323 12.2263 10.0264 12.2322 10.0203 12.238C10.0142 12.2438 10.008 12.2494 10.0016 12.2548C9.99525 12.2603 9.98875 12.2656 9.98213 12.2707C9.97551 12.2759 9.96875 12.2808 9.96188 12.2856C9.955 12.2904 9.94802 12.2951 9.94092 12.2995C9.93382 12.304 9.92661 12.3083 9.91929 12.3124C9.91197 12.3165 9.90455 12.3204 9.89704 12.3241C9.88955 12.3278 9.88195 12.3314 9.87426 12.3347C9.86657 12.3381 9.85881 12.3412 9.85097 12.3442C9.84314 12.3472 9.83522 12.3499 9.82724 12.3525C9.70125 12.3926 9.53664 12.3889 9.41884 12.3255C9.30405 12.2637 9.20869 12.1334 9.17121 12.0101L8.24991 12.0082L7.74823 12.0082C7.65778 12.0081 7.5612 12.0154 7.47181 12.0024C7.44144 11.998 7.41354 11.9879 7.38936 11.9686C7.3519 11.9388 7.32972 11.8916 7.32515 11.8444C7.32031 11.7942 7.33431 11.7332 7.36836 11.6947C7.39943 11.6594 7.44743 11.6435 7.49255 11.6367C7.61157 11.6187 7.83572 11.6324 7.96401 11.6324L8.73397 11.633C8.88618 11.6333 9.03896 11.6372 9.19106 11.6319C9.20734 11.5979 9.22956 11.5647 9.25261 11.535C9.352 11.4067 9.46524 11.3604 9.62226 11.3414Z" fill="white"/>
<path d="M9.61148 11.6878C9.64923 11.685 9.68765 11.6804 9.72425 11.6927C9.76819 11.7076 9.80563 11.7397 9.8244 11.7824C9.82672 11.7878 9.82878 11.7933 9.83057 11.7989C9.83235 11.8045 9.83386 11.8101 9.83509 11.8159C9.83633 11.8216 9.83729 11.8274 9.83795 11.8332C9.83862 11.839 9.83899 11.8449 9.83908 11.8508C9.83919 11.8566 9.83899 11.8625 9.83851 11.8684C9.83803 11.8742 9.83727 11.88 9.83622 11.8858C9.83517 11.8916 9.83385 11.8973 9.83225 11.9029C9.83064 11.9086 9.82876 11.9141 9.82662 11.9196C9.80568 11.9722 9.76451 12.0031 9.71418 12.0248C9.67749 12.0295 9.64067 12.0337 9.60505 12.0211C9.59961 12.0191 9.59428 12.0168 9.58906 12.0143C9.58385 12.0118 9.57879 12.009 9.57386 12.006C9.56894 12.0029 9.56418 11.9996 9.5596 11.9961C9.55501 11.9926 9.55062 11.9888 9.54642 11.9848C9.54222 11.9808 9.53824 11.9766 9.53447 11.9722C9.53071 11.9678 9.52718 11.9633 9.52389 11.9585C9.5206 11.9537 9.51757 11.9488 9.51477 11.9437C9.51199 11.9387 9.50948 11.9335 9.50723 11.9281C9.48782 11.8812 9.48826 11.8247 9.51002 11.7787C9.53083 11.7346 9.56674 11.7053 9.61148 11.6878Z" fill="white"/>
<path d="M9.27237 9.35838C9.35424 9.35139 9.43378 9.35895 9.51093 9.38879C9.63605 9.43719 9.73336 9.53884 9.786 9.66124C9.84021 9.78738 9.83699 9.94254 9.78558 10.0691C9.73678 10.1893 9.6398 10.2944 9.51858 10.3433C9.39366 10.3937 9.23224 10.3927 9.10881 10.3383C8.96228 10.2736 8.8726 10.1392 8.81637 9.99458C8.42103 10.0014 8.02445 9.9942 7.62898 9.99456L7.0888 9.99471C6.9991 9.99473 6.89538 10.005 6.80786 9.98855C6.78108 9.98353 6.75515 9.96889 6.73519 9.95066C6.69604 9.91495 6.67537 9.863 6.67579 9.81034C6.67621 9.75744 6.69662 9.70114 6.73541 9.66428C6.76294 9.63808 6.79783 9.6238 6.83547 9.62029C6.8992 9.61437 6.96725 9.61956 7.03153 9.61934L7.4597 9.61852L8.871 9.6204C8.88236 9.60091 8.89418 9.58196 8.9078 9.56395C9.0048 9.43543 9.11519 9.38133 9.27237 9.35838Z" fill="white"/>
<path d="M9.28346 9.69718C9.31901 9.69582 9.34951 9.69729 9.38272 9.71133C9.38813 9.71356 9.39341 9.71606 9.39856 9.71883C9.4037 9.72159 9.4087 9.72461 9.41355 9.72788C9.4184 9.73114 9.42307 9.73465 9.42757 9.73839C9.43207 9.74213 9.43636 9.74609 9.44046 9.75026C9.44455 9.75443 9.44843 9.7588 9.4521 9.76337C9.45575 9.76792 9.45917 9.77265 9.46235 9.77756C9.46553 9.78247 9.46845 9.78753 9.47111 9.79273C9.47379 9.79794 9.47619 9.80326 9.47832 9.8087C9.48036 9.81412 9.48212 9.81963 9.4836 9.82523C9.48508 9.83083 9.48626 9.8365 9.48715 9.84222C9.48804 9.84794 9.48862 9.8537 9.4889 9.8595C9.48918 9.86528 9.48917 9.87106 9.48886 9.87685C9.48853 9.88263 9.48792 9.88838 9.48702 9.8941C9.4861 9.89983 9.48489 9.90548 9.48338 9.91107C9.48187 9.91666 9.48008 9.92216 9.47801 9.92757C9.47594 9.93299 9.47359 9.93827 9.47096 9.94343C9.44509 9.9952 9.40239 10.0226 9.34936 10.0412C9.32398 10.042 9.2993 10.0428 9.27479 10.0353C9.22563 10.0202 9.18371 9.988 9.16173 9.94095C9.14194 9.89858 9.14163 9.85083 9.15955 9.8078C9.18338 9.75057 9.22812 9.72 9.28346 9.69718Z" fill="white"/>
<path d="M8.16718 10.6611C8.19723 10.6601 8.22676 10.6603 8.25619 10.6673C8.30497 10.679 8.3423 10.7107 8.36745 10.7534C8.37085 10.7592 8.37396 10.7651 8.37677 10.7711C8.37958 10.7772 8.38208 10.7833 8.38427 10.7896C8.38647 10.796 8.38834 10.8024 8.38988 10.8088C8.39143 10.8153 8.39265 10.8219 8.39354 10.8285C8.39444 10.8351 8.395 10.8418 8.39522 10.8484C8.39544 10.8551 8.39533 10.8618 8.39489 10.8684C8.39443 10.8751 8.39365 10.8817 8.39254 10.8883C8.39143 10.8949 8.38999 10.9014 8.38824 10.9078C8.3582 11.0174 8.15098 11.1999 8.04192 11.2319C7.93112 11.2643 7.61608 11.244 7.4808 11.2434L6.0866 11.2428L5.66207 11.243C5.56137 11.2431 5.45878 11.2393 5.35865 11.2512C5.2499 11.2641 5.15141 11.2925 5.05634 11.3477C5.04815 11.3523 5.04008 11.3572 5.03214 11.3622C5.02419 11.3673 5.01637 11.3726 5.00868 11.378C5.00099 11.3835 4.99344 11.3891 4.98603 11.3949C4.97862 11.4007 4.97136 11.4068 4.96425 11.4129C4.95713 11.4191 4.95018 11.4255 4.94337 11.432C4.93659 11.4385 4.92995 11.4452 4.92348 11.4521C4.91702 11.4589 4.91072 11.466 4.9046 11.4731C4.89848 11.4803 4.89254 11.4876 4.88679 11.4951C4.88104 11.5025 4.87547 11.5101 4.87009 11.5179C4.86471 11.5256 4.85952 11.5335 4.85454 11.5415C4.84954 11.5495 4.84475 11.5576 4.84017 11.5658C4.83557 11.574 4.83118 11.5824 4.82701 11.5908C4.82284 11.5993 4.81888 11.6078 4.81512 11.6165C4.81137 11.6251 4.80782 11.6339 4.8045 11.6427C4.80119 11.6515 4.79809 11.6604 4.7952 11.6693C4.79232 11.6783 4.78967 11.6874 4.78724 11.6965C4.74898 11.8412 4.77604 12.0015 4.85083 12.1299C4.92297 12.2538 5.03075 12.3412 5.16807 12.3837C5.34818 12.4394 5.5603 12.4188 5.74769 12.418L6.23404 12.4167L7.63438 12.4173C7.74305 12.4173 8.05683 12.3993 8.144 12.4268C8.1847 12.4397 8.22021 12.4753 8.23973 12.5124C8.26371 12.5579 8.27178 12.6169 8.25453 12.6661C8.23323 12.7269 8.18077 12.7597 8.12494 12.7847C7.99401 12.8105 7.82818 12.7955 7.69321 12.7953L6.8833 12.7945L5.78899 12.7951C5.61502 12.7951 5.40339 12.809 5.23322 12.7874C5.10887 12.7717 4.97769 12.7147 4.8692 12.6534C4.65821 12.5342 4.49465 12.3118 4.43079 12.0792C4.36668 11.8456 4.40657 11.5925 4.52597 11.3831C4.53357 11.3698 4.54148 11.3567 4.5497 11.3438C4.55791 11.3308 4.5664 11.3181 4.57519 11.3056C4.58399 11.293 4.59307 11.2807 4.60243 11.2686C4.61179 11.2564 4.62141 11.2445 4.63131 11.2328C4.64121 11.2212 4.65138 11.2097 4.66181 11.1985C4.67225 11.1873 4.68293 11.1763 4.69386 11.1656C4.70479 11.1548 4.71596 11.1444 4.72737 11.1341C4.73879 11.1239 4.75043 11.114 4.76231 11.1043C4.77417 11.0946 4.78625 11.0852 4.79855 11.0761C4.81086 11.0669 4.82336 11.0581 4.83606 11.0495C4.84876 11.041 4.86166 11.0327 4.87475 11.0248C4.88783 11.0168 4.90109 11.0091 4.91452 11.0018C4.92796 10.9944 4.94156 10.9874 4.95531 10.9806C4.96908 10.9739 4.98298 10.9675 4.99703 10.9614C5.01109 10.9553 5.02528 10.9495 5.0396 10.9441C5.05391 10.9386 5.06834 10.9335 5.08289 10.9287C5.28162 10.8651 5.50319 10.8796 5.70956 10.8789L6.21549 10.8776L7.36359 10.8772C7.49779 10.8774 7.71153 10.8947 7.83732 10.8764C7.9689 10.8573 8.03258 10.6977 8.16718 10.6611Z" fill="white"/>
<path d="M11.2122 2.80157C11.2685 2.79551 11.3193 2.80421 11.3645 2.84082C11.4501 2.91012 11.4553 3.04798 11.4638 3.14943C11.5379 4.03404 11.4549 5.14976 11.0776 5.96157C11.019 6.08765 10.9452 6.23735 10.8544 6.343C10.7906 6.41729 10.7263 6.44291 10.6316 6.44996C10.4638 6.46247 10.2888 6.453 10.1203 6.45291C9.99438 6.45284 9.83875 6.46671 9.71582 6.4449C9.67885 6.43834 9.64791 6.42368 9.61998 6.39837C9.58043 6.3625 9.55519 6.31139 9.55505 6.25763C9.55492 6.21133 9.57524 6.16533 9.60818 6.13299C9.64056 6.10116 9.68324 6.08483 9.72749 6.07789C9.81653 6.06394 9.91827 6.07485 10.0086 6.07552C10.1912 6.07707 10.3738 6.07684 10.5564 6.07483C10.6474 5.96756 10.7063 5.84213 10.7617 5.71394C10.8061 5.61131 10.8491 5.50686 10.8813 5.3997C11.0738 4.75937 11.1221 3.87738 11.0902 3.20792C10.3107 3.32919 9.46296 3.56249 8.75768 3.91917C8.64713 3.97506 8.50863 4.03482 8.42104 4.12301C8.39934 4.14486 8.37845 4.1711 8.37271 4.20209C8.35498 4.29787 8.3676 4.57176 8.36758 4.68773L8.36539 5.79126C8.54654 5.61972 8.71183 5.42942 8.88179 5.24689C9.00782 5.1115 9.13995 4.98196 9.26781 4.84827C9.37465 4.73659 9.47926 4.61171 9.5962 4.51074C9.6255 4.48543 9.6609 4.45544 9.69926 4.44695C9.75218 4.43521 9.80189 4.44173 9.84736 4.47228C9.91288 4.51631 9.93573 4.57877 9.94977 4.65237C9.93691 4.69367 9.92417 4.72563 9.89667 4.75995C9.81194 4.86564 9.69926 4.9614 9.60454 5.05935C9.3623 5.30984 9.11642 5.55818 8.87786 5.81209C8.18672 6.53888 7.51039 7.27918 6.84885 8.03299C6.59228 8.32869 6.35545 8.64085 6.10121 8.93843C6.76878 8.84999 7.44615 8.68086 8.05088 8.37802C8.26956 8.26851 8.47549 8.14068 8.67787 8.00378C8.79841 7.92166 8.91545 7.83484 9.029 7.74331C9.09856 7.68632 9.1656 7.61809 9.24077 7.56916C9.29329 7.53498 9.3418 7.51772 9.40475 7.5326C9.41133 7.53419 9.41782 7.53609 9.42421 7.53831C9.4306 7.54052 9.43686 7.54306 9.443 7.54591C9.44913 7.54875 9.45511 7.5519 9.46092 7.55534C9.46674 7.55877 9.47239 7.56249 9.47784 7.5665C9.4833 7.57049 9.48854 7.57475 9.49357 7.57927C9.4986 7.5838 9.50339 7.58855 9.50796 7.59354C9.51252 7.59854 9.51681 7.60375 9.52085 7.60918C9.52489 7.6146 9.52865 7.62021 9.53214 7.62601C9.55916 7.67068 9.57085 7.72678 9.55796 7.77789C9.54625 7.82429 9.5161 7.86324 9.48268 7.89633C9.43434 7.94418 9.3719 7.98124 9.31794 8.0229C9.14035 8.16 8.96264 8.29533 8.77299 8.41564C8.10737 8.84154 7.3576 9.10787 6.58487 9.25988C6.36586 9.30298 6.14284 9.34087 5.92014 9.3577C5.93221 9.36372 5.9441 9.37008 5.95581 9.37678C6.03438 9.42158 6.1044 9.49618 6.12659 9.58559C6.1414 9.64526 6.13444 9.70863 6.10168 9.76122C6.0281 9.87936 5.83488 9.91188 5.71393 9.96664C5.55781 10.0373 5.41217 10.1237 5.27012 10.2192C5.17402 10.2831 5.08163 10.352 4.99297 10.4259C4.9323 10.4757 4.87166 10.5356 4.8052 10.5769C4.77885 10.5932 4.75075 10.6066 4.72003 10.6121C4.6785 10.6195 4.63627 10.6115 4.60167 10.5869C4.56789 10.5629 4.54076 10.5274 4.53397 10.486C4.51623 10.3777 4.63869 10.1914 4.68077 10.0873C4.77599 9.85181 4.85811 9.60496 4.91165 9.35648C4.93953 9.22712 4.91773 9.06682 5.00073 8.95635C5.04024 8.90378 5.09913 8.86563 5.16503 8.85807C5.25739 8.84744 5.3311 8.89103 5.3992 8.94768C5.40055 8.84396 5.40255 8.73978 5.40838 8.63619C5.42426 8.35524 5.47694 8.06693 5.53832 7.79253C5.77226 6.7467 6.22789 5.84162 6.92019 5.02313C7.06139 4.85619 7.20681 4.67943 7.37118 4.53454C7.42829 4.48421 7.48812 4.4475 7.56759 4.45458C7.57499 4.4553 7.58232 4.4564 7.5896 4.45788C7.59687 4.45936 7.60405 4.46121 7.61113 4.46343C7.61822 4.46565 7.62517 4.46822 7.63198 4.47115C7.6388 4.47408 7.64546 4.47734 7.65195 4.48095C7.65842 4.48457 7.6647 4.48852 7.67078 4.49277C7.67687 4.49703 7.68272 4.50159 7.68832 4.50646C7.69393 4.51132 7.69927 4.51646 7.70436 4.52188C7.70945 4.52729 7.71424 4.53294 7.71873 4.53884C7.75567 4.58747 7.77104 4.66317 7.74271 4.71969C7.69593 4.81296 7.56256 4.91087 7.48623 4.98717C7.42998 5.04421 7.37504 5.10248 7.3214 5.16198C7.1718 5.3284 7.03166 5.50244 6.901 5.68411C6.40605 6.37652 6.04616 7.15759 5.89118 7.99695C5.84994 8.22027 5.83461 8.44687 5.8023 8.67132C5.91551 8.57062 6.00364 8.44199 6.10041 8.32594C6.29366 8.0943 6.48435 7.86109 6.68318 7.63413C6.91954 7.36432 7.15764 7.09273 7.40252 6.83068C7.52883 6.69685 7.65359 6.56159 7.77678 6.42489C7.8471 6.34719 7.92664 6.26867 7.98353 6.1805C7.99052 6.01483 7.98484 5.84725 7.98551 5.68133L7.98773 4.61131L7.98775 4.25461C7.98779 4.17722 7.98331 4.09639 7.9944 4.01963C8.00055 3.97721 8.02335 3.93935 8.05072 3.90708C8.13428 3.80857 8.26639 3.74367 8.37665 3.68025C9.04464 3.29612 9.81491 3.07508 10.5645 2.91571C10.7782 2.87028 10.9945 2.82312 11.2122 2.80157Z" fill="white"/>
</svg>
