<svg width="32" height="32" viewBox="0 0 32 32" fill="none" xmlns="http://www.w3.org/2000/svg">
<rect width="32" height="32" rx="16" fill="#167EDD"/>
<path d="M17.4417 13.849C17.7464 13.8165 18.1663 13.8436 18.4838 13.8437L19.6647 13.8423C19.8375 13.8421 20.2526 13.8137 20.4039 13.8624C20.4882 13.8895 20.5594 13.9607 20.5995 14.0381C20.6475 14.1308 20.6573 14.242 20.6208 14.3404C20.5764 14.46 20.4788 14.5234 20.3671 14.5726C20.1093 14.6143 19.6185 14.5845 19.3307 14.5847C18.7526 14.5851 18.1706 14.6049 17.5929 14.5899C17.5268 14.5881 17.4565 14.5823 17.3935 14.5616C17.3178 14.5368 17.2445 14.4584 17.2095 14.3889C17.2038 14.3773 17.1987 14.3656 17.1942 14.3536C17.1897 14.3415 17.1859 14.3293 17.1827 14.3169C17.1794 14.3044 17.1769 14.2919 17.175 14.2792C17.1731 14.2665 17.1718 14.2537 17.1713 14.2409C17.1707 14.2281 17.1708 14.2152 17.1716 14.2024C17.1723 14.1896 17.1738 14.1769 17.1759 14.1642C17.178 14.1516 17.1807 14.139 17.1841 14.1267C17.1876 14.1143 17.1916 14.1021 17.1963 14.0902C17.2425 13.9711 17.3296 13.9021 17.4417 13.849Z" fill="white"/>
<path d="M20.5595 15.4587C20.8 15.4381 21.0617 15.4944 21.2608 15.6343C21.4895 15.7949 21.6403 16.052 21.6874 16.3256C21.734 16.5957 21.671 16.8895 21.5089 17.1118C21.3262 17.3624 21.0888 17.4735 20.7894 17.5202C20.5227 17.5391 20.2796 17.4993 20.0595 17.3378C19.8398 17.1767 19.6881 16.9096 19.648 16.6414C19.6072 16.3687 19.6905 16.0795 19.8541 15.8594C20.0357 15.6153 20.2629 15.5029 20.5595 15.4587Z" fill="white"/>
<path d="M20.6446 16.1661C20.7468 16.1647 20.8523 16.1864 20.9257 16.2627C21.0176 16.3583 21.0163 16.4795 21.0145 16.6027C20.9399 16.7366 20.8616 16.7973 20.7159 16.8442C20.6319 16.8504 20.5591 16.8519 20.484 16.8078C20.4024 16.7599 20.3467 16.6841 20.3265 16.5915C20.3239 16.5799 20.322 16.5682 20.3206 16.5565C20.3193 16.5447 20.3186 16.5329 20.3184 16.521C20.3182 16.5092 20.3187 16.4973 20.3197 16.4855C20.3207 16.4737 20.3223 16.462 20.3246 16.4503C20.3268 16.4387 20.3296 16.4271 20.3329 16.4158C20.3363 16.4044 20.3402 16.3932 20.3447 16.3823C20.3492 16.3713 20.3542 16.3606 20.3598 16.3501C20.3653 16.3396 20.3714 16.3295 20.378 16.3196C20.4439 16.222 20.533 16.1864 20.6446 16.1661Z" fill="white"/>
<path d="M19.2455 22.6827C19.4269 22.6572 19.6433 22.6948 19.8074 22.7754C20.0411 22.8901 20.2291 23.1214 20.3116 23.3666C20.4007 23.6316 20.376 23.9454 20.2503 24.1946C20.2428 24.2096 20.2349 24.2244 20.2266 24.2391C20.2184 24.2536 20.2098 24.268 20.2008 24.2822C20.1918 24.2964 20.1825 24.3103 20.1729 24.324C20.1632 24.3377 20.1532 24.3512 20.1429 24.3644C20.1326 24.3776 20.122 24.3906 20.111 24.4033C20.1 24.416 20.0888 24.4284 20.0772 24.4405C20.0656 24.4526 20.0537 24.4645 20.0415 24.476C20.0294 24.4875 20.0169 24.4988 20.0042 24.5097C19.9915 24.5206 19.9785 24.5312 19.9652 24.5415C19.952 24.5517 19.9385 24.5617 19.9247 24.5713C19.911 24.5809 19.897 24.5902 19.8828 24.5991C19.8686 24.608 19.8542 24.6165 19.8396 24.6247C19.8249 24.6329 19.8101 24.6408 19.7951 24.6482C19.7801 24.6557 19.7649 24.6627 19.7495 24.6695C19.7341 24.6762 19.7186 24.6825 19.7029 24.6884C19.6872 24.6943 19.6714 24.6999 19.6555 24.705C19.4035 24.7853 19.0743 24.7778 18.8387 24.651C18.6091 24.5275 18.4184 24.2668 18.3434 24.0202L16.5008 24.0164L15.4974 24.0165C15.3165 24.0163 15.1234 24.0308 14.9446 24.0047C14.8839 23.9959 14.8281 23.9757 14.7797 23.9372C14.7048 23.8775 14.6604 23.7832 14.6513 23.6889C14.6416 23.5883 14.6696 23.4665 14.7377 23.3893C14.7998 23.3189 14.8958 23.2869 14.9861 23.2733C15.2241 23.2374 15.6724 23.2648 15.929 23.2649L17.4689 23.266C17.7733 23.2665 18.0789 23.2743 18.3831 23.2638C18.4157 23.1958 18.4601 23.1294 18.5062 23.0699C18.705 22.8133 18.9315 22.7208 19.2455 22.6827Z" fill="white"/>
<path d="M19.223 23.3755C19.2985 23.3699 19.3753 23.3608 19.4485 23.3855C19.5364 23.4151 19.6113 23.4794 19.6488 23.5648C19.6534 23.5756 19.6576 23.5865 19.6611 23.5977C19.6647 23.6089 19.6677 23.6202 19.6702 23.6317C19.6727 23.6432 19.6746 23.6548 19.6759 23.6664C19.6772 23.6781 19.678 23.6898 19.6782 23.7015C19.6784 23.7133 19.678 23.725 19.677 23.7367C19.6761 23.7484 19.6745 23.76 19.6724 23.7716C19.6703 23.7831 19.6677 23.7946 19.6645 23.8059C19.6613 23.8172 19.6575 23.8283 19.6532 23.8392C19.6114 23.9445 19.529 24.0061 19.4284 24.0496C19.355 24.0591 19.2813 24.0673 19.2101 24.0421C19.1992 24.0382 19.1886 24.0337 19.1781 24.0287C19.1677 24.0236 19.1576 24.018 19.1477 24.012C19.1379 24.0059 19.1284 23.9993 19.1192 23.9922C19.11 23.9851 19.1012 23.9776 19.0928 23.9697C19.0844 23.9617 19.0765 23.9533 19.0689 23.9445C19.0614 23.9357 19.0544 23.9265 19.0478 23.917C19.0412 23.9075 19.0351 23.8976 19.0295 23.8875C19.024 23.8773 19.019 23.8669 19.0145 23.8562C18.9756 23.7624 18.9765 23.6494 19.02 23.5573C19.0617 23.4692 19.1335 23.4106 19.223 23.3755Z" fill="white"/>
<path d="M18.5438 18.7168C18.7075 18.7028 18.8666 18.7179 19.0209 18.7776C19.2711 18.8744 19.4658 19.0777 19.571 19.3225C19.6794 19.5748 19.673 19.8851 19.5702 20.1382C19.4726 20.3785 19.2786 20.5887 19.0362 20.6865C18.7863 20.7874 18.4635 20.7854 18.2166 20.6765C17.9236 20.5472 17.7442 20.2784 17.6318 19.9892C16.8411 20.0029 16.0479 19.9884 15.257 19.9891L14.1766 19.9894C13.9972 19.9895 13.7898 20.0099 13.6147 19.9771C13.5612 19.9671 13.5093 19.9378 13.4694 19.9013C13.3911 19.8299 13.3498 19.726 13.3506 19.6207C13.3514 19.5149 13.3923 19.4023 13.4698 19.3286C13.5249 19.2762 13.5947 19.2476 13.67 19.2406C13.7974 19.2287 13.9335 19.2391 14.0621 19.2387L14.9184 19.237L17.741 19.2408C17.7637 19.2018 17.7874 19.1639 17.8146 19.1279C18.0086 18.8709 18.2294 18.7627 18.5438 18.7168Z" fill="white"/>
<path d="M18.5659 19.3944C18.6371 19.3916 18.6981 19.3946 18.7645 19.4227C18.7753 19.4271 18.7858 19.4321 18.7961 19.4377C18.8064 19.4432 18.8164 19.4492 18.8261 19.4558C18.8358 19.4623 18.8452 19.4693 18.8542 19.4768C18.8632 19.4843 18.8717 19.4922 18.8799 19.5005C18.8881 19.5089 18.8959 19.5176 18.9032 19.5267C18.9105 19.5358 18.9174 19.5453 18.9237 19.5551C18.9301 19.5649 18.9359 19.5751 18.9412 19.5855C18.9466 19.5959 18.9514 19.6065 18.9557 19.6174C18.9597 19.6282 18.9633 19.6393 18.9662 19.6505C18.9692 19.6617 18.9715 19.673 18.9733 19.6844C18.9751 19.6959 18.9763 19.7074 18.9768 19.719C18.9774 19.7306 18.9774 19.7421 18.9767 19.7537C18.9761 19.7653 18.9749 19.7768 18.9731 19.7882C18.9712 19.7997 18.9688 19.811 18.9658 19.8221C18.9628 19.8333 18.9592 19.8443 18.955 19.8551C18.9509 19.866 18.9462 19.8765 18.9409 19.8869C18.8892 19.9904 18.8038 20.0451 18.6977 20.0825C18.647 20.0839 18.5976 20.0856 18.5486 20.0705C18.4503 20.0403 18.3664 19.976 18.3225 19.8819C18.2829 19.7972 18.2823 19.7017 18.3181 19.6156C18.3658 19.5011 18.4553 19.44 18.5659 19.3944Z" fill="white"/>
<path d="M16.3334 21.3226C16.3935 21.3207 16.4525 21.3211 16.5114 21.3352C16.609 21.3584 16.6836 21.4218 16.7339 21.5073C16.7407 21.5188 16.7469 21.5306 16.7526 21.5427C16.7582 21.5548 16.7632 21.5672 16.7676 21.5798C16.772 21.5924 16.7757 21.6052 16.7788 21.6182C16.7819 21.6312 16.7843 21.6443 16.7861 21.6575C16.7879 21.6707 16.789 21.684 16.7895 21.6974C16.7899 21.7107 16.7897 21.724 16.7888 21.7373C16.7879 21.7507 16.7863 21.7639 16.7841 21.7771C16.7819 21.7903 16.779 21.8033 16.7755 21.8161C16.7154 22.0353 16.301 22.4003 16.0829 22.4642C15.8613 22.5292 15.2312 22.4884 14.9606 22.4872L12.1722 22.4861L11.3232 22.4864C11.1218 22.4866 10.9166 22.4792 10.7163 22.5029C10.4988 22.5286 10.3018 22.5856 10.1117 22.6958C10.0953 22.7051 10.0792 22.7148 10.0633 22.725C10.0474 22.7351 10.0318 22.7456 10.0164 22.7565C10.001 22.7674 9.9859 22.7787 9.97108 22.7903C9.95626 22.802 9.94174 22.814 9.92752 22.8264C9.91329 22.8387 9.89938 22.8514 9.88577 22.8645C9.8722 22.8775 9.85893 22.8909 9.84598 22.9047C9.83305 22.9184 9.82047 22.9324 9.80823 22.9467C9.79598 22.9611 9.78411 22.9757 9.7726 22.9906C9.7611 23.0055 9.74996 23.0207 9.7392 23.0362C9.72843 23.0517 9.71807 23.0674 9.7081 23.0834C9.6981 23.0994 9.68852 23.1156 9.67935 23.1321C9.67016 23.1485 9.66139 23.1652 9.65305 23.1821C9.64471 23.199 9.63678 23.2161 9.62927 23.2334C9.62176 23.2507 9.61467 23.2682 9.60802 23.2858C9.60139 23.3034 9.5952 23.3212 9.58943 23.3392C9.58366 23.3571 9.57836 23.3752 9.5735 23.3934C9.49698 23.6829 9.5511 24.0036 9.70069 24.2604C9.84496 24.5081 10.0605 24.6828 10.3352 24.7678C10.6954 24.8794 11.1196 24.838 11.4944 24.8365L12.4671 24.834L15.2678 24.8352C15.4851 24.8351 16.1127 24.7992 16.287 24.8541C16.3684 24.8798 16.4394 24.9511 16.4785 25.0253C16.5264 25.1164 16.5426 25.2343 16.5081 25.3326C16.4655 25.4542 16.3606 25.52 16.2489 25.5699C15.987 25.6214 15.6554 25.5914 15.3854 25.5911L13.7656 25.5895L11.577 25.5907C11.2291 25.5907 10.8058 25.6185 10.4655 25.5754C10.2168 25.5439 9.9544 25.4299 9.73742 25.3072C9.31545 25.0688 8.98832 24.624 8.8606 24.1588C8.73239 23.6918 8.81215 23.1855 9.05096 22.7667C9.06616 22.7401 9.08198 22.7139 9.09843 22.688C9.11484 22.6622 9.13183 22.6367 9.1494 22.6116C9.167 22.5865 9.18516 22.5619 9.20388 22.5376C9.2226 22.5133 9.24185 22.4895 9.26164 22.4662C9.28145 22.4428 9.30178 22.4199 9.32263 22.3975C9.34351 22.375 9.36488 22.3531 9.38674 22.3316C9.40859 22.3102 9.43094 22.2892 9.45377 22.2688C9.4766 22.2483 9.49989 22.2284 9.52364 22.2091C9.54736 22.1897 9.57152 22.1709 9.59613 22.1526C9.62074 22.1344 9.64574 22.1167 9.67115 22.0996C9.69655 22.0825 9.72234 22.066 9.74851 22.05C9.77469 22.0341 9.8012 22.0187 9.82806 22.0041C9.85494 21.9893 9.88213 21.9752 9.90964 21.9618C9.93717 21.9483 9.96499 21.9355 9.99309 21.9233C10.0212 21.9111 10.0496 21.8995 10.0782 21.8887C10.1068 21.8778 10.1357 21.8675 10.1648 21.858C10.5623 21.7307 11.0054 21.7597 11.4181 21.7582L12.43 21.7557L14.7262 21.7548C14.9946 21.7553 15.4221 21.79 15.6737 21.7534C15.9368 21.7151 16.0642 21.3959 16.3334 21.3226Z" fill="white"/>
<path d="M22.4244 5.60362C22.5371 5.59152 22.6386 5.6089 22.729 5.68214C22.9002 5.82073 22.9106 6.09644 22.9276 6.29935C23.0759 8.06857 22.9098 10.3 22.1552 11.9236C22.0381 12.1758 21.8904 12.4752 21.7088 12.6865C21.5812 12.8351 21.4527 12.8863 21.2632 12.9004C20.9276 12.9254 20.5775 12.9065 20.2406 12.9063C19.9888 12.9062 19.6775 12.9339 19.4316 12.8903C19.3577 12.8772 19.2958 12.8478 19.24 12.7972C19.1609 12.7255 19.1104 12.6233 19.1101 12.5157C19.1098 12.4232 19.1505 12.3311 19.2164 12.2665C19.2811 12.2028 19.3665 12.1702 19.455 12.1563C19.6331 12.1284 19.8365 12.1502 20.0172 12.1515C20.3824 12.1546 20.7476 12.1542 21.1127 12.1501C21.2949 11.9356 21.4127 11.6847 21.5235 11.4284C21.6122 11.2231 21.6982 11.0142 21.7626 10.7999C22.1475 9.51923 22.2441 7.75524 22.1803 6.41634C20.6215 6.65887 18.9259 7.12547 17.5154 7.83882C17.2943 7.95061 17.0173 8.07013 16.8421 8.24651C16.7987 8.29021 16.7569 8.34269 16.7454 8.40466C16.71 8.59622 16.7352 9.14401 16.7352 9.37594L16.7308 11.583C17.0931 11.2399 17.4237 10.8593 17.7636 10.4943C18.0156 10.2235 18.2799 9.96441 18.5356 9.69703C18.7493 9.47367 18.9585 9.22391 19.1924 9.02197C19.251 8.97135 19.3218 8.91137 19.3985 8.89438C19.5044 8.87092 19.6038 8.88396 19.6947 8.94504C19.8258 9.0331 19.8715 9.15803 19.8995 9.30522C19.8738 9.38783 19.8483 9.45175 19.7933 9.52038C19.6239 9.73177 19.3985 9.92328 19.2091 10.1192C18.7246 10.6202 18.2328 11.1169 17.7557 11.6247C16.3734 13.0783 15.0208 14.5589 13.6977 16.0665C13.1846 16.6579 12.7109 17.2822 12.2024 17.8773C13.5376 17.7005 14.8923 17.3622 16.1018 16.7565C16.5391 16.5375 16.951 16.2819 17.3557 16.008C17.5968 15.8438 17.8309 15.6702 18.058 15.4871C18.1971 15.3731 18.3312 15.2367 18.4815 15.1388C18.5866 15.0704 18.6836 15.0359 18.8095 15.0657C18.8227 15.0689 18.8356 15.0727 18.8484 15.0771C18.8612 15.0815 18.8737 15.0866 18.886 15.0923C18.8983 15.098 18.9102 15.1043 18.9218 15.1112C18.9335 15.118 18.9448 15.1255 18.9557 15.1335C18.9666 15.1415 18.9771 15.15 18.9871 15.159C18.9972 15.1681 19.0068 15.1776 19.0159 15.1876C19.025 15.1976 19.0336 15.208 19.0417 15.2188C19.0498 15.2297 19.0573 15.2409 19.0643 15.2525C19.1183 15.3419 19.1417 15.454 19.1159 15.5563C19.0925 15.6491 19.0322 15.727 18.9654 15.7932C18.8687 15.8888 18.7438 15.963 18.6359 16.0463C18.2807 16.3205 17.9253 16.5911 17.546 16.8318C16.2147 17.6836 14.7152 18.2162 13.1697 18.5203C12.7317 18.6064 12.2857 18.6822 11.8403 18.7159C11.8644 18.7279 11.8882 18.7406 11.9116 18.754C12.0688 18.8437 12.2088 18.9928 12.2532 19.1717C12.2828 19.291 12.2689 19.4178 12.2034 19.5229C12.0562 19.7592 11.6698 19.8242 11.4279 19.9338C11.1156 20.0751 10.8243 20.2479 10.5402 20.4389C10.348 20.5667 10.1633 20.7045 9.98594 20.8523C9.8646 20.9518 9.74332 21.0717 9.61041 21.1542C9.55771 21.1868 9.5015 21.2136 9.44006 21.2246C9.35701 21.2395 9.27254 21.2234 9.20334 21.1743C9.13577 21.1264 9.08152 21.0553 9.06794 20.9724C9.03245 20.7559 9.27738 20.3832 9.36153 20.1751C9.55198 19.7041 9.71621 19.2104 9.8233 18.7135C9.87907 18.4547 9.83546 18.1341 10.0015 17.9132C10.0805 17.8081 10.1983 17.7318 10.3301 17.7166C10.5148 17.6954 10.6622 17.7825 10.7984 17.8958C10.8011 17.6884 10.8051 17.48 10.8168 17.2729C10.8485 16.711 10.9539 16.1343 11.0766 15.5855C11.5445 13.4939 12.4558 11.6837 13.8404 10.0467C14.1228 9.71287 14.4136 9.35935 14.7424 9.06957C14.8566 8.96891 14.9762 8.89549 15.1352 8.90964C15.15 8.91109 15.1646 8.9133 15.1792 8.91625C15.1937 8.91921 15.2081 8.92291 15.2223 8.92734C15.2364 8.93178 15.2503 8.93693 15.264 8.94278C15.2776 8.94864 15.2909 8.95517 15.3039 8.96239C15.3168 8.96964 15.3294 8.97752 15.3416 8.98604C15.3537 8.99455 15.3654 9.00368 15.3766 9.01341C15.3879 9.02314 15.3985 9.03342 15.4087 9.04424C15.4189 9.05506 15.4285 9.06638 15.4375 9.07818C15.5113 9.17542 15.5421 9.32683 15.4854 9.43986C15.3919 9.62641 15.1251 9.82223 14.9725 9.97483C14.86 10.0889 14.7501 10.2054 14.6428 10.3245C14.3436 10.6573 14.0633 11.0054 13.802 11.3687C12.8121 12.7535 12.0923 14.3157 11.7824 15.9944C11.6999 16.441 11.6692 16.8942 11.6046 17.3431C11.831 17.1417 12.0073 16.8845 12.2008 16.6524C12.5873 16.1891 12.9687 15.7227 13.3664 15.2687C13.8391 14.7291 14.3153 14.1859 14.805 13.6618C15.0577 13.3942 15.3072 13.1237 15.5536 12.8503C15.6942 12.6949 15.8533 12.5378 15.9671 12.3615C15.981 12.0301 15.9697 11.695 15.971 11.3632L15.9755 9.22311L15.9755 8.50972C15.9756 8.35493 15.9666 8.19328 15.9888 8.03974C16.0011 7.95492 16.0467 7.87919 16.1014 7.81464C16.2686 7.61763 16.5328 7.48782 16.7533 7.36099C18.0893 6.59272 19.6298 6.15065 21.129 5.8319C21.5565 5.74105 21.9891 5.64674 22.4244 5.60362Z" fill="white"/>
</svg>
