<svg width="98" height="24" viewBox="0 0 98 24" fill="none" xmlns="http://www.w3.org/2000/svg">
<rect width="24" height="24" rx="12" fill="#2B3746"/>
<path d="M13.0812 10.3865C13.3097 10.3621 13.6247 10.3824 13.8628 10.3825L14.7484 10.3815C14.878 10.3814 15.1894 10.3601 15.3028 10.3965C15.366 10.4169 15.4195 10.4703 15.4495 10.5283C15.4855 10.5979 15.4929 10.6813 15.4655 10.7551C15.4322 10.8448 15.359 10.8923 15.2752 10.9292C15.0819 10.9605 14.7138 10.9381 14.498 10.9383C14.0644 10.9386 13.6279 10.9535 13.1946 10.9421C13.145 10.9409 13.0923 10.9365 13.045 10.921C12.9883 10.9024 12.9333 10.8435 12.9071 10.7914C12.9028 10.7828 12.899 10.7739 12.8956 10.7649C12.8922 10.7559 12.8893 10.7467 12.8869 10.7374C12.8845 10.7281 12.8826 10.7187 12.8812 10.7091C12.8797 10.6996 12.8788 10.6901 12.8784 10.6804C12.8779 10.6708 12.878 10.6612 12.8786 10.6516C12.8792 10.642 12.8803 10.6324 12.8818 10.6229C12.8834 10.6134 12.8855 10.604 12.888 10.5948C12.8906 10.5855 12.8936 10.5763 12.8971 10.5674C12.9318 10.4781 12.9971 10.4264 13.0812 10.3865Z" fill="white"/>
<path d="M15.4198 11.5939C15.6002 11.5784 15.7965 11.6207 15.9458 11.7256C16.1173 11.846 16.2305 12.0389 16.2658 12.2441C16.3007 12.4467 16.2535 12.667 16.1319 12.8337C15.9949 13.0217 15.8168 13.105 15.5922 13.14C15.3922 13.1542 15.2099 13.1244 15.0448 13.0033C14.8801 12.8824 14.7663 12.6821 14.7362 12.481C14.7056 12.2764 14.7681 12.0595 14.8908 11.8944C15.027 11.7114 15.1974 11.627 15.4198 11.5939Z" fill="white"/>
<path d="M15.4837 12.1246C15.5603 12.1236 15.6394 12.1398 15.6945 12.197C15.7634 12.2687 15.7625 12.3597 15.7611 12.452C15.7052 12.5524 15.6464 12.598 15.5371 12.6331C15.4741 12.6378 15.4195 12.6389 15.3632 12.6059C15.302 12.5699 15.2602 12.5131 15.2451 12.4436C15.2432 12.4349 15.2417 12.4262 15.2407 12.4173C15.2397 12.4085 15.2391 12.3997 15.239 12.3908C15.2389 12.3819 15.2392 12.373 15.24 12.3641C15.2407 12.3553 15.242 12.3465 15.2436 12.3377C15.2453 12.329 15.2474 12.3204 15.2499 12.3118C15.2524 12.3033 15.2554 12.2949 15.2587 12.2867C15.2621 12.2785 15.2659 12.2704 15.27 12.2626C15.2742 12.2547 15.2788 12.2471 15.2837 12.2397C15.3331 12.1665 15.3999 12.1398 15.4837 12.1246Z" fill="white"/>
<path d="M14.434 17.0118C14.57 16.9926 14.7323 17.0209 14.8554 17.0813C15.0307 17.1673 15.1717 17.3408 15.2335 17.5247C15.3003 17.7234 15.2818 17.9588 15.1876 18.1457C15.1819 18.157 15.176 18.1681 15.1698 18.179C15.1636 18.19 15.1572 18.2008 15.1505 18.2114C15.1437 18.222 15.1368 18.2325 15.1295 18.2428C15.1223 18.2531 15.1148 18.2632 15.107 18.2731C15.0993 18.283 15.0913 18.2927 15.0831 18.3022C15.0749 18.3117 15.0664 18.321 15.0577 18.3301C15.0491 18.3392 15.0401 18.3481 15.031 18.3568C15.0219 18.3654 15.0126 18.3738 15.003 18.382C14.9935 18.3902 14.9837 18.3982 14.9738 18.4059C14.9638 18.4136 14.9537 18.421 14.9434 18.4282C14.9331 18.4354 14.9226 18.4424 14.912 18.449C14.9013 18.4557 14.8905 18.4622 14.8795 18.4683C14.8685 18.4745 14.8574 18.4803 14.8462 18.4859C14.8349 18.4915 14.8235 18.4968 14.812 18.5018C14.8004 18.5069 14.7888 18.5116 14.777 18.5161C14.7653 18.5205 14.7534 18.5247 14.7414 18.5285C14.5525 18.5887 14.3056 18.5831 14.1288 18.488C13.9567 18.3954 13.8136 18.1998 13.7574 18.0149L12.3754 18.0121L11.6229 18.0121C11.4873 18.012 11.3424 18.0229 11.2083 18.0033C11.1628 17.9967 11.1209 17.9815 11.0846 17.9527C11.0284 17.9079 10.9952 17.8371 10.9883 17.7664C10.9811 17.691 11.002 17.5996 11.0531 17.5418C11.0997 17.4889 11.1717 17.465 11.2394 17.4547C11.4179 17.4278 11.7542 17.4483 11.9466 17.4484L13.1015 17.4493C13.3299 17.4497 13.559 17.4555 13.7872 17.4476C13.8116 17.3966 13.8449 17.3468 13.8795 17.3022C14.0286 17.1098 14.1984 17.0403 14.434 17.0118Z" fill="white"/>
<path d="M14.4171 17.5311C14.4737 17.527 14.5313 17.5201 14.5862 17.5386C14.6521 17.5609 14.7083 17.6091 14.7364 17.6731C14.7399 17.6812 14.743 17.6894 14.7457 17.6978C14.7484 17.7062 14.7506 17.7147 14.7525 17.7233C14.7543 17.7319 14.7558 17.7406 14.7568 17.7493C14.7578 17.7581 14.7583 17.7669 14.7585 17.7757C14.7586 17.7845 14.7583 17.7933 14.7576 17.802C14.7569 17.8108 14.7558 17.8195 14.7542 17.8282C14.7526 17.8369 14.7506 17.8454 14.7482 17.8539C14.7458 17.8624 14.743 17.8707 14.7398 17.8789C14.7084 17.9579 14.6466 18.0041 14.5711 18.0367C14.5161 18.0438 14.4609 18.05 14.4074 18.0311C14.3993 18.0282 14.3913 18.0248 14.3834 18.021C14.3756 18.0172 14.368 18.013 14.3606 18.0085C14.3533 18.0039 14.3461 17.999 14.3392 17.9937C14.3324 17.9884 14.3258 17.9827 14.3195 17.9768C14.3132 17.9708 14.3072 17.9645 14.3015 17.9579C14.2959 17.9513 14.2906 17.9444 14.2857 17.9373C14.2808 17.9301 14.2762 17.9227 14.272 17.9151C14.2678 17.9075 14.2641 17.8997 14.2607 17.8917C14.2316 17.8213 14.2322 17.7366 14.2649 17.6675C14.2961 17.6014 14.35 17.5574 14.4171 17.5311Z" fill="white"/>
<path d="M13.9079 14.0373C14.0307 14.0268 14.15 14.0382 14.2657 14.0829C14.4534 14.1555 14.5994 14.308 14.6783 14.4916C14.7596 14.6808 14.7548 14.9136 14.6777 15.1034C14.6045 15.2837 14.459 15.4413 14.2772 15.5147C14.0898 15.5903 13.8477 15.5888 13.6625 15.5071C13.4427 15.4102 13.3082 15.2086 13.2239 14.9916C12.6309 15.0019 12.036 14.9911 11.4428 14.9916L10.6325 14.9918C10.498 14.9919 10.3424 15.0072 10.2111 14.9826C10.1709 14.9751 10.132 14.9531 10.1021 14.9257C10.0434 14.8722 10.0124 14.7943 10.013 14.7153C10.0136 14.6359 10.0442 14.5515 10.1024 14.4962C10.1437 14.4569 10.196 14.4355 10.2525 14.4302C10.3481 14.4213 10.4502 14.4291 10.5466 14.4288L11.1888 14.4275L13.3058 14.4304C13.3228 14.4011 13.3406 14.3727 13.361 14.3457C13.5065 14.1529 13.6721 14.0718 13.9079 14.0373Z" fill="white"/>
<path d="M13.9248 14.5455C13.9782 14.5435 14.0239 14.5457 14.0737 14.5667C14.0818 14.5701 14.0897 14.5738 14.0975 14.578C14.1052 14.5821 14.1127 14.5867 14.12 14.5916C14.1272 14.5965 14.1342 14.6017 14.141 14.6073C14.1477 14.613 14.1542 14.6189 14.1603 14.6251C14.1665 14.6314 14.1723 14.638 14.1778 14.6448C14.1833 14.6516 14.1884 14.6587 14.1932 14.6661C14.1979 14.6735 14.2023 14.681 14.2063 14.6889C14.2103 14.6967 14.2139 14.7046 14.2171 14.7128C14.2202 14.7209 14.2228 14.7292 14.225 14.7376C14.2273 14.746 14.229 14.7545 14.2304 14.7631C14.2317 14.7717 14.2326 14.7803 14.233 14.789C14.2334 14.7977 14.2334 14.8064 14.2329 14.815C14.2324 14.8237 14.2315 14.8323 14.2302 14.8409C14.2288 14.8495 14.227 14.858 14.2247 14.8664C14.2224 14.8747 14.2198 14.883 14.2166 14.8911C14.2135 14.8992 14.21 14.9072 14.2061 14.9149C14.1673 14.9926 14.1032 15.0336 14.0237 15.0616C13.9856 15.0627 13.9486 15.064 13.9118 15.0527C13.8381 15.03 13.7752 14.9817 13.7422 14.9112C13.7125 14.8476 13.7121 14.776 13.739 14.7114C13.7747 14.6256 13.8418 14.5798 13.9248 14.5455Z" fill="white"/>
<path d="M12.2502 15.9918C12.2953 15.9904 12.3395 15.9907 12.3837 16.0012C12.4569 16.0187 12.5129 16.0663 12.5506 16.1304C12.5557 16.139 12.5603 16.1478 12.5646 16.1569C12.5688 16.166 12.5725 16.1753 12.5758 16.1847C12.5791 16.1942 12.5819 16.2038 12.5842 16.2135C12.5866 16.2233 12.5884 16.2331 12.5897 16.243C12.5911 16.2529 12.5919 16.2629 12.5922 16.2729C12.5926 16.2829 12.5924 16.2929 12.5917 16.3029C12.5911 16.3129 12.5899 16.3228 12.5882 16.3327C12.5866 16.3426 12.5844 16.3523 12.5818 16.362C12.5367 16.5263 12.2259 16.8001 12.0623 16.848C11.8961 16.8968 11.4235 16.8662 11.2206 16.8653L9.12931 16.8645L8.49252 16.8647C8.34146 16.8648 8.18758 16.8593 8.03739 16.877C7.87426 16.8964 7.72653 16.939 7.58393 17.0217C7.57164 17.0287 7.55954 17.036 7.54763 17.0436C7.53569 17.0512 7.52396 17.0591 7.51243 17.0673C7.50089 17.0754 7.48957 17.0839 7.47846 17.0926C7.46734 17.1014 7.45645 17.1104 7.44578 17.1196C7.43511 17.1289 7.42468 17.1385 7.41447 17.1483C7.40429 17.158 7.39434 17.1681 7.38463 17.1784C7.37494 17.1887 7.3655 17.1992 7.35632 17.2099C7.34713 17.2207 7.33823 17.2316 7.3296 17.2429C7.32097 17.254 7.31262 17.2654 7.30454 17.2771C7.29647 17.2887 7.2887 17.3005 7.28122 17.3125C7.27372 17.3244 7.26654 17.3366 7.25966 17.349C7.25276 17.3613 7.24619 17.3738 7.23993 17.3865C7.23367 17.3992 7.22773 17.412 7.2221 17.4249C7.21646 17.4379 7.21115 17.451 7.20616 17.4642C7.20119 17.4775 7.19654 17.4908 7.19222 17.5043C7.18789 17.5177 7.18391 17.5313 7.18027 17.545C7.12288 17.762 7.16347 18.0025 7.27566 18.1952C7.38386 18.3809 7.54553 18.512 7.75152 18.5758C8.02169 18.6594 8.33987 18.6284 8.62095 18.6272L9.35047 18.6254L11.451 18.6263C11.614 18.6262 12.0847 18.5992 12.2154 18.6405C12.2765 18.6597 12.3297 18.7132 12.359 18.7688C12.395 18.8371 12.4071 18.9256 12.3812 18.9993C12.3493 19.0905 12.2706 19.1398 12.1868 19.1773C11.9904 19.2159 11.7417 19.1934 11.5392 19.1932L10.3244 19.192L8.6829 19.1929C8.42195 19.1929 8.1045 19.2137 7.84924 19.1814C7.66272 19.1578 7.46595 19.0723 7.30321 18.9803C6.98673 18.8015 6.74138 18.4679 6.64559 18.119C6.54944 17.7687 6.60926 17.389 6.78836 17.0749C6.79976 17.055 6.81163 17.0353 6.82396 17.0159C6.83628 16.9965 6.84902 16.9774 6.86219 16.9586C6.87539 16.9398 6.88901 16.9213 6.90305 16.9031C6.91709 16.8849 6.93153 16.867 6.94637 16.8495C6.96123 16.832 6.97648 16.8148 6.99212 16.798C7.00778 16.7811 7.02381 16.7647 7.0402 16.7486C7.05659 16.7325 7.07335 16.7168 7.09047 16.7014C7.1076 16.6861 7.12506 16.6712 7.14288 16.6567C7.16066 16.6422 7.17879 16.6281 7.19724 16.6143C7.2157 16.6007 7.23445 16.5874 7.2535 16.5746C7.27256 16.5617 7.2919 16.5493 7.31153 16.5374C7.33116 16.5254 7.35105 16.5139 7.37119 16.5029C7.39135 16.4919 7.41175 16.4813 7.43237 16.4712C7.45303 16.4611 7.47389 16.4515 7.49496 16.4423C7.51605 16.4332 7.53734 16.4245 7.55881 16.4164C7.58028 16.4082 7.60193 16.4005 7.62375 16.3934C7.92184 16.2979 8.25419 16.3197 8.56375 16.3185L9.32265 16.3166L11.0448 16.316C11.2461 16.3164 11.5667 16.3423 11.7554 16.3149C11.9528 16.2862 12.0483 16.0468 12.2502 15.9918Z" fill="white"/>
<path d="M16.8181 4.20235C16.9026 4.19327 16.9787 4.20631 17.0466 4.26124C17.175 4.36518 17.1828 4.57196 17.1955 4.72415C17.3067 6.05106 17.1821 7.72464 16.6162 8.94236C16.5284 9.13148 16.4176 9.35603 16.2814 9.5145C16.1857 9.62593 16.0893 9.66436 15.9472 9.67494C15.6955 9.6937 15.4329 9.6795 15.1803 9.67936C14.9914 9.67926 14.7579 9.70006 14.5735 9.66735C14.5181 9.65751 14.4717 9.63551 14.4298 9.59755C14.3704 9.54375 14.3326 9.46709 14.3324 9.38644C14.3322 9.317 14.3627 9.24799 14.4121 9.19948C14.4606 9.15174 14.5247 9.12725 14.591 9.11684C14.7246 9.09591 14.8772 9.11228 15.0127 9.11328C15.2866 9.11561 15.5605 9.11526 15.8343 9.11225C15.971 8.95134 16.0593 8.76319 16.1424 8.57091C16.2089 8.41696 16.2735 8.26028 16.3218 8.09955C16.6104 7.13906 16.6829 5.81607 16.635 4.81189C15.4659 4.99378 14.1942 5.34374 13.1363 5.87875C12.9705 5.96259 12.7627 6.05223 12.6314 6.18452C12.5988 6.21729 12.5675 6.25665 12.5589 6.30313C12.5323 6.4468 12.5512 6.85764 12.5512 7.03159L12.5479 8.6869C12.8196 8.42957 13.0675 8.14413 13.3225 7.87034C13.5115 7.66725 13.7097 7.47294 13.9015 7.27241C14.0618 7.10489 14.2187 6.91756 14.3941 6.76611C14.438 6.72815 14.4911 6.68316 14.5487 6.67042C14.6281 6.65282 14.7026 6.6626 14.7708 6.70842C14.8691 6.77446 14.9034 6.86816 14.9244 6.97855C14.9052 7.0405 14.8861 7.08845 14.8448 7.13992C14.7177 7.29846 14.5487 7.4421 14.4066 7.58902C14.0432 7.96476 13.6744 8.33728 13.3166 8.71814C12.2799 9.80833 11.2654 10.9188 10.2731 12.0495C9.88822 12.493 9.53297 12.9613 9.15161 13.4076C10.153 13.275 11.169 13.0213 12.0761 12.567C12.4041 12.4028 12.713 12.211 13.0166 12.0057C13.1974 11.8825 13.373 11.7523 13.5433 11.615C13.6476 11.5295 13.7482 11.4271 13.8609 11.3537C13.9397 11.3025 14.0125 11.2766 14.1069 11.2989C14.1168 11.3013 14.1265 11.3041 14.1361 11.3075C14.1457 11.3108 14.1551 11.3146 14.1643 11.3189C14.1735 11.3231 14.1825 11.3278 14.1912 11.333C14.1999 11.3382 14.2084 11.3437 14.2166 11.3497C14.2247 11.3557 14.2326 11.3621 14.2401 11.3689C14.2477 11.3757 14.2549 11.3828 14.2617 11.3903C14.2686 11.3978 14.275 11.4056 14.2811 11.4138C14.2871 11.4219 14.2928 11.4303 14.298 11.439C14.3385 11.506 14.3561 11.5902 14.3367 11.6668C14.3192 11.7364 14.274 11.7949 14.2238 11.8445C14.1513 11.9163 14.0577 11.9719 13.9767 12.0343C13.7103 12.24 13.4438 12.443 13.1593 12.6235C12.1609 13.2623 11.0362 13.6618 9.8771 13.8898C9.54858 13.9545 9.21406 14.0113 8.88001 14.0366C8.89811 14.0456 8.91595 14.0551 8.93351 14.0652C9.05136 14.1324 9.1564 14.2443 9.18967 14.3784C9.2119 14.4679 9.20145 14.5629 9.15231 14.6418C9.04195 14.819 8.75211 14.8678 8.57068 14.95C8.33652 15.056 8.11805 15.1856 7.90498 15.3288C7.76082 15.4247 7.62225 15.528 7.48925 15.6388C7.39825 15.7135 7.30728 15.8034 7.2076 15.8653C7.16807 15.8898 7.12592 15.9099 7.07984 15.9181C7.01755 15.9293 6.9542 15.9172 6.9023 15.8803C6.85162 15.8444 6.81093 15.7911 6.80075 15.729C6.77413 15.5666 6.95783 15.287 7.02094 15.131C7.16378 14.7777 7.28695 14.4074 7.36727 14.0347C7.40909 13.8407 7.37639 13.6002 7.50089 13.4345C7.56015 13.3557 7.64849 13.2984 7.74734 13.2871C7.88588 13.2712 7.99644 13.3365 8.09859 13.4215C8.10062 13.2659 8.10361 13.1097 8.11236 12.9543C8.13618 12.5329 8.21521 12.1004 8.30727 11.6888C8.65819 10.1201 9.34163 8.76242 10.3801 7.53469C10.5919 7.28429 10.81 7.01914 11.0566 6.80181C11.1422 6.72632 11.232 6.67125 11.3512 6.68187C11.3623 6.68295 11.3733 6.68461 11.3842 6.68682C11.3951 6.68904 11.4059 6.69182 11.4165 6.69514C11.4271 6.69847 11.4375 6.70233 11.4478 6.70672C11.458 6.71111 11.468 6.71601 11.4777 6.72143C11.4874 6.72686 11.4968 6.73277 11.506 6.73916C11.5151 6.74555 11.5239 6.75239 11.5323 6.75969C11.5407 6.76699 11.5487 6.7747 11.5563 6.78281C11.564 6.79093 11.5712 6.79942 11.5779 6.80827C11.6333 6.8812 11.6564 6.99476 11.6139 7.07953C11.5437 7.21944 11.3436 7.3663 11.2291 7.48076C11.1448 7.56631 11.0623 7.65372 10.9819 7.74297C10.7575 7.9926 10.5473 8.25366 10.3513 8.52616C9.60887 9.56478 9.06903 10.7364 8.83656 11.9954C8.77471 12.3304 8.75172 12.6703 8.70324 13.007C8.87306 12.8559 9.00525 12.663 9.15041 12.4889C9.44028 12.1415 9.72632 11.7916 10.0246 11.4512C10.3791 11.0465 10.7363 10.6391 11.1036 10.246C11.293 10.0453 11.4802 9.84239 11.665 9.63734C11.7704 9.52079 11.8898 9.40301 11.9751 9.27075C11.9856 9.02224 11.9771 8.77088 11.9781 8.522L11.9814 6.91697L11.9814 6.38192C11.9815 6.26583 11.9748 6.14459 11.9914 6.02944C12.0006 5.96582 12.0348 5.90903 12.0759 5.86062C12.2012 5.71286 12.3994 5.6155 12.5648 5.52038C13.5668 4.94418 14.7222 4.61262 15.8465 4.37356C16.1672 4.30542 16.4916 4.23469 16.8181 4.20235Z" fill="white"/>
<path d="M33.1378 19V5.90909H41.8054V8.19105H35.9055V11.3104H41.2301V13.5923H35.9055V19H33.1378ZM46.339 5.90909V19H43.6159V5.90909H46.339ZM54.8164 14.8196V9.18182H57.5394V19H54.9251V17.2166H54.8228C54.6012 17.7919 54.2326 18.2543 53.717 18.6037C53.2056 18.9531 52.5813 19.1278 51.8441 19.1278C51.1879 19.1278 50.6104 18.9787 50.1119 18.6804C49.6133 18.3821 49.2234 17.9581 48.9421 17.4084C48.6651 16.8587 48.5245 16.2003 48.5202 15.4332V9.18182H51.2433V14.9474C51.2475 15.527 51.4031 15.9851 51.7099 16.3217C52.0167 16.6584 52.4279 16.8267 52.9435 16.8267C53.2717 16.8267 53.5785 16.7521 53.864 16.603C54.1495 16.4496 54.3796 16.2237 54.5543 15.9254C54.7333 15.6271 54.8207 15.2585 54.8164 14.8196ZM59.7175 19V9.18182H62.3127V10.9141H62.4277C62.6323 10.3388 62.9732 9.88494 63.4505 9.55256C63.9277 9.22017 64.4988 9.05398 65.1635 9.05398C65.8368 9.05398 66.41 9.2223 66.883 9.55895C67.356 9.89133 67.6713 10.343 67.829 10.9141H67.9313C68.1316 10.3516 68.4938 9.90199 69.0179 9.56534C69.5463 9.22443 70.1706 9.05398 70.8908 9.05398C71.807 9.05398 72.5506 9.34588 73.1216 9.92969C73.6969 10.5092 73.9846 11.3317 73.9846 12.397V19H71.2679V12.9339C71.2679 12.3885 71.123 11.9794 70.8333 11.7067C70.5435 11.4339 70.1813 11.2976 69.7466 11.2976C69.2523 11.2976 68.8667 11.4553 68.5897 11.7706C68.3127 12.0817 68.1742 12.4929 68.1742 13.0043V19H65.5343V12.8764C65.5343 12.3949 65.3958 12.0114 65.1188 11.7259C64.8461 11.4403 64.486 11.2976 64.0385 11.2976C63.736 11.2976 63.4632 11.3743 63.2203 11.5277C62.9817 11.6768 62.7921 11.8878 62.6515 12.1605C62.5108 12.429 62.4405 12.7443 62.4405 13.1065V19H59.7175ZM80.6099 19.1918C79.6 19.1918 78.7306 18.9872 78.002 18.5781C77.2775 18.1648 76.7193 17.581 76.3272 16.8267C75.9352 16.0682 75.7392 15.1712 75.7392 14.1357C75.7392 13.1257 75.9352 12.2393 76.3272 11.4766C76.7193 10.7138 77.2711 10.1193 77.9828 9.69318C78.6987 9.26705 79.5382 9.05398 80.5012 9.05398C81.149 9.05398 81.752 9.15838 82.3102 9.36719C82.8727 9.57173 83.3627 9.88068 83.7804 10.294C84.2022 10.7074 84.5304 11.2273 84.7647 11.8537C84.9991 12.4759 85.1163 13.2045 85.1163 14.0398V14.7876H76.8258V13.1001H82.5531C82.5531 12.7081 82.4679 12.3608 82.2974 12.0582C82.127 11.7557 81.8904 11.5192 81.5879 11.3487C81.2896 11.174 80.9423 11.0866 80.546 11.0866C80.1326 11.0866 79.7662 11.1825 79.4466 11.3743C79.1312 11.5618 78.8841 11.8153 78.7051 12.1349C78.5261 12.4503 78.4345 12.8018 78.4302 13.1896V14.794C78.4302 15.2798 78.5197 15.6996 78.6987 16.0533C78.8819 16.407 79.1397 16.6797 79.4721 16.8714C79.8045 17.0632 80.1987 17.1591 80.6547 17.1591C80.9572 17.1591 81.2342 17.1165 81.4856 17.0312C81.737 16.946 81.9522 16.8182 82.1312 16.6477C82.3102 16.4773 82.4466 16.2685 82.5403 16.0213L85.0588 16.1875C84.9309 16.7926 84.6689 17.321 84.2726 17.7727C83.8805 18.2202 83.3734 18.5696 82.7512 18.821C82.1333 19.0682 81.4196 19.1918 80.6099 19.1918ZM89.6163 13.3239V19H86.8933V9.18182H89.4885V10.9141H89.6035C89.8208 10.343 90.1852 9.89133 90.6966 9.55895C91.2079 9.2223 91.8279 9.05398 92.5566 9.05398C93.2385 9.05398 93.8329 9.20312 94.34 9.50142C94.8471 9.79972 95.2413 10.2259 95.5226 10.7798C95.8038 11.3295 95.9444 11.9858 95.9444 12.7486V19H93.2214V13.2344C93.2257 12.6335 93.0723 12.1648 92.7612 11.8281C92.4501 11.4872 92.0218 11.3168 91.4764 11.3168C91.1099 11.3168 90.786 11.3956 90.5048 11.5533C90.2278 11.7109 90.0105 11.9411 89.8528 12.2436C89.6994 12.5419 89.6206 12.902 89.6163 13.3239Z" fill="#2B3746"/>
</svg>
